<?xml version="1.0" encoding="UTF-8"?>
<svg id="Layer_2" data-name="Layer 2" xmlns="http://www.w3.org/2000/svg" xmlns:xlink="http://www.w3.org/1999/xlink" viewBox="0 0 1615.47 1401">
  <defs>
    <style>
      .cls-1 {
        filter: url(#drop-shadow-14);
      }

      .cls-2, .cls-3 {
        fill: #fff;
      }

      .cls-4 {
        fill: #e5a230;
      }

      .cls-5 {
        filter: url(#drop-shadow-4);
      }

      .cls-6 {
        filter: url(#drop-shadow-8);
      }

      .cls-7 {
        fill: #0c7;
        filter: url(#drop-shadow-1);
      }

      .cls-8 {
        fill: #e0e0e0;
      }

      .cls-9 {
        filter: url(#drop-shadow-15);
      }

      .cls-10 {
        filter: url(#drop-shadow-3);
      }

      .cls-11 {
        fill: #1b2952;
      }

      .cls-12 {
        stroke: #fff;
        stroke-miterlimit: 10;
        stroke-width: 3px;
      }

      .cls-12, .cls-13 {
        fill: none;
      }

      .cls-14 {
        fill: #84c6c4;
      }

      .cls-15 {
        filter: url(#drop-shadow-6);
      }

      .cls-16 {
        fill: #c2c4b5;
      }

      .cls-17 {
        fill: #00aa95;
        filter: url(#drop-shadow-5);
      }

      .cls-18 {
        fill: #263a71;
      }

      .cls-19 {
        fill: #e6f8fc;
      }

      .cls-20 {
        filter: url(#drop-shadow-2);
      }

      .cls-21 {
        clip-path: url(#clippath);
      }

      .cls-22 {
        fill: #a5e987;
      }

      .cls-23 {
        filter: url(#drop-shadow-16);
      }

      .cls-24 {
        fill: #42ccb8;
        filter: url(#drop-shadow-7);
      }

      .cls-3 {
        filter: url(#drop-shadow-12);
      }

      .cls-25 {
        filter: url(#drop-shadow-13);
      }

      .cls-26 {
        fill: #d8e7ea;
      }

      .cls-27 {
        fill: url(#linear-gradient);
      }

      .cls-28 {
        fill: #34a853;
        filter: url(#drop-shadow-10);
      }

      .cls-29 {
        fill: #fff400;
      }

      .cls-30 {
        fill: #838383;
      }

      .cls-31 {
        fill: #197c30;
        filter: url(#drop-shadow-9);
      }

      .cls-32 {
        fill: #58ddda;
      }

      .cls-33 {
        fill: #4ec66a;
        filter: url(#drop-shadow-11);
      }
    </style>
    <clipPath id="clippath">
      <circle class="cls-13" cx="850.33" cy="700.88" r="329.11"/>
    </clipPath>
    <linearGradient id="linear-gradient" x1="668.12" y1="470.99" x2="1071.12" y2="1044.96" gradientUnits="userSpaceOnUse">
      <stop offset="0" stop-color="#f5ffff"/>
      <stop offset="1" stop-color="#50f7ff"/>
    </linearGradient>
    <filter id="drop-shadow-1" filterUnits="userSpaceOnUse">
      <feOffset dx="3" dy="3"/>
      <feGaussianBlur result="blur" stdDeviation="3"/>
      <feFlood flood-color="#000" flood-opacity=".3"/>
      <feComposite in2="blur" operator="in"/>
      <feComposite in="SourceGraphic"/>
    </filter>
    <filter id="drop-shadow-2" filterUnits="userSpaceOnUse">
      <feOffset dx="3" dy="3"/>
      <feGaussianBlur result="blur-2" stdDeviation="3"/>
      <feFlood flood-color="#000" flood-opacity=".3"/>
      <feComposite in2="blur-2" operator="in"/>
      <feComposite in="SourceGraphic"/>
    </filter>
    <filter id="drop-shadow-3" filterUnits="userSpaceOnUse">
      <feOffset dx="3" dy="3"/>
      <feGaussianBlur result="blur-3" stdDeviation="3"/>
      <feFlood flood-color="#000" flood-opacity=".3"/>
      <feComposite in2="blur-3" operator="in"/>
      <feComposite in="SourceGraphic"/>
    </filter>
    <filter id="drop-shadow-4" filterUnits="userSpaceOnUse">
      <feOffset dx="3" dy="3"/>
      <feGaussianBlur result="blur-4" stdDeviation="3"/>
      <feFlood flood-color="#000" flood-opacity=".3"/>
      <feComposite in2="blur-4" operator="in"/>
      <feComposite in="SourceGraphic"/>
    </filter>
    <filter id="drop-shadow-5" filterUnits="userSpaceOnUse">
      <feOffset dx="6" dy="6"/>
      <feGaussianBlur result="blur-5" stdDeviation="6"/>
      <feFlood flood-color="#000" flood-opacity=".3"/>
      <feComposite in2="blur-5" operator="in"/>
      <feComposite in="SourceGraphic"/>
    </filter>
    <filter id="drop-shadow-6" filterUnits="userSpaceOnUse">
      <feOffset dx="3" dy="3"/>
      <feGaussianBlur result="blur-6" stdDeviation="3"/>
      <feFlood flood-color="#000" flood-opacity=".3"/>
      <feComposite in2="blur-6" operator="in"/>
      <feComposite in="SourceGraphic"/>
    </filter>
    <filter id="drop-shadow-7" filterUnits="userSpaceOnUse">
      <feOffset dx="6" dy="6"/>
      <feGaussianBlur result="blur-7" stdDeviation="6"/>
      <feFlood flood-color="#000" flood-opacity=".3"/>
      <feComposite in2="blur-7" operator="in"/>
      <feComposite in="SourceGraphic"/>
    </filter>
    <filter id="drop-shadow-8" filterUnits="userSpaceOnUse">
      <feOffset dx="2" dy="2"/>
      <feGaussianBlur result="blur-8" stdDeviation="2"/>
      <feFlood flood-color="#000" flood-opacity=".3"/>
      <feComposite in2="blur-8" operator="in"/>
      <feComposite in="SourceGraphic"/>
    </filter>
    <filter id="drop-shadow-9" filterUnits="userSpaceOnUse">
      <feOffset dx="10" dy="10"/>
      <feGaussianBlur result="blur-9" stdDeviation="20"/>
      <feFlood flood-color="#000" flood-opacity=".3"/>
      <feComposite in2="blur-9" operator="in"/>
      <feComposite in="SourceGraphic"/>
    </filter>
    <filter id="drop-shadow-10" filterUnits="userSpaceOnUse">
      <feOffset dx="5" dy="5"/>
      <feGaussianBlur result="blur-10" stdDeviation="8"/>
      <feFlood flood-color="#000" flood-opacity=".3"/>
      <feComposite in2="blur-10" operator="in"/>
      <feComposite in="SourceGraphic"/>
    </filter>
    <filter id="drop-shadow-11" filterUnits="userSpaceOnUse">
      <feOffset dx="5" dy="5"/>
      <feGaussianBlur result="blur-11" stdDeviation="10"/>
      <feFlood flood-color="#000" flood-opacity=".3"/>
      <feComposite in2="blur-11" operator="in"/>
      <feComposite in="SourceGraphic"/>
    </filter>
    <filter id="drop-shadow-12" filterUnits="userSpaceOnUse">
      <feOffset dx="5" dy="5"/>
      <feGaussianBlur result="blur-12" stdDeviation="10"/>
      <feFlood flood-color="#000" flood-opacity=".25"/>
      <feComposite in2="blur-12" operator="in"/>
      <feComposite in="SourceGraphic"/>
    </filter>
    <filter id="drop-shadow-13" filterUnits="userSpaceOnUse">
      <feOffset dx="5" dy="5"/>
      <feGaussianBlur result="blur-13" stdDeviation="8"/>
      <feFlood flood-color="#000" flood-opacity=".3"/>
      <feComposite in2="blur-13" operator="in"/>
      <feComposite in="SourceGraphic"/>
    </filter>
    <filter id="drop-shadow-14" filterUnits="userSpaceOnUse">
      <feOffset dx="5" dy="5"/>
      <feGaussianBlur result="blur-14" stdDeviation="8"/>
      <feFlood flood-color="#000" flood-opacity=".3"/>
      <feComposite in2="blur-14" operator="in"/>
      <feComposite in="SourceGraphic"/>
    </filter>
    <filter id="drop-shadow-15" filterUnits="userSpaceOnUse">
      <feOffset dx="5" dy="5"/>
      <feGaussianBlur result="blur-15" stdDeviation="8"/>
      <feFlood flood-color="#000" flood-opacity=".3"/>
      <feComposite in2="blur-15" operator="in"/>
      <feComposite in="SourceGraphic"/>
    </filter>
    <filter id="drop-shadow-16" filterUnits="userSpaceOnUse">
      <feOffset dx="5" dy="5"/>
      <feGaussianBlur result="blur-16" stdDeviation="8"/>
      <feFlood flood-color="#000" flood-opacity=".3"/>
      <feComposite in2="blur-16" operator="in"/>
      <feComposite in="SourceGraphic"/>
    </filter>
  </defs>
  <g id="Layer_3" data-name="Layer 3">
    <g class="cls-21">
      <rect class="cls-27" x="463.25" y="352.08" width="762.23" height="739.84"/>
      <g>
        <g>
          <polygon class="cls-32" points="893.54 637.44 953.43 637.44 953.43 513.89 955.14 513.89 955.14 510.36 951.42 510.36 951.42 505.84 921.95 505.84 921.95 498.97 910.69 498.97 909.01 494.48 906.23 494.48 906.23 486.47 905.61 486.47 904.99 486.47 904.99 494.48 899.83 494.48 899.83 498.97 899.83 504.14 899.83 505.84 895.55 505.84 895.55 510.36 891.84 510.36 891.84 513.89 893.54 513.89 893.54 637.44"/>
          <path class="cls-32" d="m906.72,485.36c0-.62-.5-1.11-1.11-1.11s-1.11.5-1.11,1.11.5,1.11,1.11,1.11,1.11-.5,1.11-1.11Z"/>
          <polygon class="cls-32" points="1449.43 644.67 1449.43 478.57 1375.68 463.26 1383.76 644.67 1167.37 644.67 1167.37 542.05 1163.38 542.05 1163.38 480.64 1153.1 480.64 1153.1 464.19 1149.43 464.19 1149.43 440.06 1129.19 440.06 1129.19 422.33 1127.39 422.33 1127.39 440.06 1123.42 440.06 1123.42 417.86 1121.62 417.86 1121.62 440.06 1108.83 440.06 1108.83 480.64 1102.22 480.64 1102.22 542.05 1096.55 542.05 1096.55 644.67 1039.01 644.67 1039.01 508.06 1040 508.06 1040 506.48 1032.92 506.48 1032.92 496.99 1033.84 496.99 1033.84 495.47 1027.34 495.47 1027.34 490.01 1027.92 490.01 1027.92 488.85 1025.12 488.85 1025.12 483.69 1022.45 483.69 1022.03 483.69 1022.03 465.29 1021.74 465.29 1021.37 465.29 1021 465.29 1021 483.69 1019.75 483.69 1019.75 473.43 1019.47 473.43 1019.1 473.43 1018.73 473.43 1018.73 483.69 1015.64 483.69 1015.64 488.85 1012.41 488.85 1012.41 490.01 1013.42 490.01 1013.42 495.47 1006.92 495.47 1006.92 496.99 1007.84 496.99 1007.84 506.48 1000.76 506.48 1000.76 508.06 1001.75 508.06 1001.75 644.67 809.83 644.67 809.83 663.3 1593.19 663.3 1593.19 644.67 1449.43 644.67"/>
        </g>
        <path class="cls-32" d="m1579.1,661.44v-16.77h-23.58l-8.92-66.02h-1.34v-7.93h-4.69v7.93h-1.16v-2.97h-3.28v2.97h-6.8v-6.91h-1.88v-4.8h-13.36v4.8h-1.87v6.91h-1.87v39.65h-11.87v-100.61h-3.91v-22.06h-1.25v22.06h-2.97v-30.61h-1.25v30.61h-2.58v-16.57h-1.25v16.57h-23.05v71.41h-25.62v46.26h-23.93l-19-35.03c3.2-1.84,6.22-4.06,8.98-6.64l3.9,4.16c-.84.73-1.37,1.81-1.37,3,0,2.2,1.79,3.99,3.99,3.99s3.99-1.79,3.99-3.99-1.79-3.99-3.99-3.99c-.84,0-1.63.26-2.27.71l-3.92-4.19c.33-.31.66-.63.99-.96,4.11-4.11,7.41-8.83,9.8-13.94l4.34,2c-.08.31-.12.64-.12.98,0,2.2,1.79,3.99,3.99,3.99s3.99-1.79,3.99-3.99-1.79-3.99-3.99-3.99c-1.71,0-3.17,1.08-3.73,2.59l-4.29-1.98c2.64-5.79,4.14-12.08,4.38-18.59l4.67.15c.06,2.15,1.82,3.88,3.99,3.88s3.99-1.79,3.99-3.99-1.79-3.99-3.99-3.99-3.8,1.61-3.97,3.65l-4.67-.15c.01-.46.02-.92.02-1.38,0-5.81-1-11.47-2.93-16.78l3.9-1.44c.61,1.41,2.02,2.4,3.66,2.4,2.2,0,3.99-1.79,3.99-3.99s-1.79-3.99-3.99-3.99-3.99,1.79-3.99,3.99c0,.41.06.8.17,1.17l-3.9,1.44c-2.22-5.96-5.61-11.47-10.05-16.24l3.05-2.86c.72.68,1.69,1.1,2.75,1.1,2.2,0,3.99-1.79,3.99-3.99s-1.79-3.99-3.99-3.99-3.99,1.79-3.99,3.99c0,.98.35,1.87.93,2.56l-3.05,2.86c-.31-.33-.63-.66-.96-.99-4.62-4.62-10.01-8.21-15.87-10.65l1.68-4.09c.38.12.79.19,1.21.19,2.2,0,3.99-1.79,3.99-3.99s-1.79-3.99-3.99-3.99-3.99,1.79-3.99,3.99c0,1.62.97,3.02,2.37,3.64l-1.68,4.08c-5.24-2.13-10.86-3.33-16.66-3.54l.18-5.59s.08,0,.13,0c2.2,0,3.99-1.79,3.99-3.99s-1.79-3.99-3.99-3.99-3.99,1.79-3.99,3.99c0,2.01,1.49,3.67,3.42,3.95l-.18,5.61c-.46-.01-.92-.02-1.38-.02-5.58,0-11.01.92-16.14,2.7l-1.61-4.56c1.45-.6,2.47-2.02,2.47-3.69,0-2.2-1.79-3.99-3.99-3.99s-3.99,1.79-3.99,3.99,1.79,3.99,3.99,3.99c.38,0,.75-.05,1.1-.15l1.61,4.56c-6.21,2.21-11.94,5.69-16.89,10.29l-2.91-3.11c.65-.71,1.05-1.66,1.05-2.7,0-2.2-1.79-3.99-3.99-3.99s-3.99,1.79-3.99,3.99,1.79,3.99,3.99,3.99c1,0,1.92-.37,2.62-.98l2.91,3.1c-.33.31-.66.63-.99.96-4.11,4.11-7.41,8.83-9.8,13.94l-3.7-1.71c.13-.4.21-.83.21-1.27,0-2.2-1.79-3.99-3.99-3.99s-3.99,1.79-3.99,3.99,1.79,3.99,3.99,3.99c1.6,0,2.98-.94,3.62-2.31l3.68,1.7c-2.64,5.79-4.14,12.08-4.38,18.59l-4.75-.15c-.06-2.15-1.82-3.88-3.99-3.88s-3.99,1.79-3.99,3.99,1.79,3.99,3.99,3.99,3.8-1.61,3.97-3.66l4.75.15c-.01.46-.02.92-.02,1.38,0,5.81,1,11.47,2.93,16.78l-3.9,1.44c-.61-1.41-2.02-2.4-3.66-2.4-2.2,0-3.99,1.79-3.99,3.99s1.79,3.99,3.99,3.99,3.99-1.79,3.99-3.99c0-.41-.06-.8-.17-1.17l3.9-1.44c2.22,5.96,5.61,11.47,10.05,16.24l-3.05,2.86c-.72-.68-1.69-1.1-2.75-1.1-2.2,0-3.99,1.79-3.99,3.99s1.79,3.99,3.99,3.99,3.99-1.79,3.99-3.99c0-.98-.35-1.87-.93-2.56l3.05-2.86c.31.33.63.66.96.99,3.11,3.11,6.57,5.76,10.29,7.9l-19,35.03h-15.39v-23.75h-6.27v-45.09h2.44v-.98h-53.91v.98h2.44v22.74h-5.28l-5.04,25.92v-84.99h-2.21v-30.78h-11.14v-11.72h-5.96v-9.84h-2.09v-16.87h-.54v16.87h-2.09v9.84h-5.96v11.72h-11.05v30.78h-2.3v55.88h-17.14v49.29h-56.86v-95.3h4.57v-1.5h-4.57v-2.68h-5.79v-4.41h-47.37v4.41h-5.79v2.68h-4.57v1.5h4.57v59.33h-7.75v-11.13h-47.8v13.59h-10.42v25.31h-16.87v-82.73h-5.62v-5.63h-4.45v-14.88h-.94v14.88h-2.11v-18.63h-.94v18.63h-2.59v5.63h-1.39v82.73h-34.92v-48.52h1.64v-3.28h-10.78v-8.91h-5.16v8.91h-4.69v-8.91h-4.69v8.91h-9.12v-8.91h-27.91v8.91h-6.52v3.28h3.71v18.28h-10.31v41.25h-14.16v-11.02h-15.76v24.02h-19.05v10.25h-28.11v29.38h822.49v-29.38h-25.11Zm-186.07-62.27l-6.58-12.13c2.11-1.24,4.07-2.71,5.86-4.36l9.43,10.06c-2.68,2.49-5.6,4.65-8.71,6.44Zm-24.64-38.92c.16.05.33.09.5.11l-1,30.69c-3.93-.15-7.7-.99-11.17-2.39l11.67-28.41Zm-12.08,28.24c-1.12-.47-2.22-1-3.27-1.59l14.64-26.99c.09.06.19.12.3.18l-11.67,28.41Zm13.02-28.12c.19,0,.37-.04.54-.08l10.21,28.96c-3.41,1.18-7.08,1.82-10.89,1.82-.29,0-.58,0-.86-.01l1-30.69Zm.96-.23c.15-.07.29-.14.42-.23l14.64,26.99c-1.55.86-3.17,1.6-4.85,2.21l-10.21-28.96Zm2.46,1.68l19.09,20.37c-1.75,1.62-3.66,3.05-5.72,4.26l-13.37-24.64Zm-.84-1.54l-.55-1.02c.06-.08.11-.16.16-.25l27.88,12.87c-1.78,3.77-4.24,7.16-7.24,10.01l-20.25-21.61Zm-.21-1.67c.07-.19.12-.4.14-.61l30.69,1c-.17,4.44-1.21,8.65-2.96,12.48l-27.88-12.87Zm.16-1.05c0-.2-.04-.39-.09-.58l28.82-10.61c1.28,3.54,1.98,7.35,1.98,11.33,0,.29,0,.58-.01.86l-30.69-1Zm-.25-1c-.09-.19-.2-.37-.33-.53l22.4-20.99c2.91,3.14,5.22,6.84,6.75,10.91l-28.82,10.61Zm-.63-.86c-.17-.16-.37-.29-.58-.4l11.67-28.41c4.3,1.81,8.14,4.49,11.31,7.82l-22.4,20.99Zm-.99-.57c-.16-.05-.33-.09-.5-.11l1-30.69c3.93.15,7.7.99,11.17,2.39l-11.67,28.41Zm-.94-.12c-.19,0-.37.04-.54.08l-10.21-28.96c3.41-1.18,7.08-1.82,10.89-1.82.29,0,.58,0,.86.01l-1,30.69Zm-.96.23c-.2.09-.39.21-.57.35l-20.99-22.4c3.25-3.01,7.1-5.38,11.35-6.91l10.21,28.96Zm-.89.65c-.13.15-.25.31-.34.48l-27.88-12.87c1.78-3.77,4.24-7.16,7.24-10l20.99,22.4Zm-.53.88c-.07.19-.12.4-.14.61l-30.69-1c.17-4.44,1.21-8.65,2.96-12.48l27.88,12.87Zm-.16,1.05c0,.2.04.39.09.58l-28.82,10.61c-1.28-3.54-1.98-7.35-1.98-11.33,0-.29,0-.58.01-.86l30.69,1Zm.25,1c.07.15.16.3.26.44l-.18.34-22.14,20.75c-2.91-3.14-5.22-6.84-6.75-10.91l28.82-10.61Zm-.6,2.01l-13.9,25.62c-2.69-1.59-5.13-3.54-7.27-5.79l21.17-19.84Zm-13.45,26.65c1.08.6,2.19,1.14,3.34,1.62l-5.24,12.76c-1.6-.66-3.16-1.42-4.68-2.26l6.58-12.13Zm3.75,1.79c3.55,1.43,7.38,2.29,11.4,2.44l-.45,13.76c-5.63-.2-11.09-1.38-16.19-3.45l5.24-12.76Zm11.84,2.46c.29,0,.59.01.88.01,3.89,0,7.63-.66,11.11-1.86l4.58,13.01c-4.98,1.72-10.27,2.62-15.69,2.62-.44,0-.89,0-1.33-.02l.45-13.76Zm12.41-2c1.72-.62,3.37-1.37,4.95-2.25l6.58,12.13c-2.23,1.23-4.55,2.28-6.94,3.13l-4.58-13.01Zm22.28,1.77c-.31.31-.63.62-.96.93l-9.42-10.06c3.05-2.9,5.57-6.36,7.39-10.21l12.53,5.78c-2.33,4.97-5.53,9.56-9.53,13.56Zm9.72-13.96l-12.52-5.78c1.78-3.91,2.84-8.21,3.02-12.74l13.76.45c-.23,6.33-1.69,12.45-4.26,18.08Zm4.29-19.85c0,.44,0,.89-.02,1.33l-13.76-.45c0-.29.01-.59.01-.88,0-4.06-.71-7.95-2.02-11.56l12.94-4.76c1.87,5.16,2.85,10.67,2.85,16.32Zm-12.77-32.53c4.32,4.64,7.61,10,9.77,15.8l-12.94,4.77c-1.57-4.16-3.93-7.93-6.89-11.14l10.06-9.43Zm-1.23-1.28c.31.31.62.63.93.95l-10.06,9.42c-3.23-3.4-7.15-6.14-11.54-7.98l5.24-12.76c5.7,2.37,10.93,5.86,15.43,10.36Zm-32.04-13.97c5.63.2,11.1,1.38,16.19,3.44l-5.24,12.76c-3.55-1.43-7.38-2.29-11.4-2.44l.45-13.76Zm-1.77-.03c.44,0,.89,0,1.33.02l-.45,13.76c-.29,0-.59-.01-.88-.01-3.89,0-7.63.66-11.11,1.86l-4.58-13.01c4.98-1.72,10.27-2.62,15.69-2.62Zm-16.11,2.77l4.58,13.01c-4.33,1.56-8.26,3.98-11.58,7.05l-9.43-10.06c4.81-4.47,10.38-7.85,16.42-10Zm-17.7,11.24c.31-.31.63-.62.96-.93l9.42,10.06c-3.05,2.9-5.57,6.36-7.39,10.21l-12.53-5.78c2.33-4.97,5.53-9.56,9.53-13.56Zm-9.72,13.96l12.52,5.78c-1.78,3.91-2.84,8.21-3.02,12.74l-13.76-.45c.23-6.33,1.69-12.45,4.26-18.07Zm-4.29,19.85c0-.44,0-.89.02-1.33l13.76.45c0,.29-.01.59-.01.88,0,4.05.71,7.95,2.02,11.56l-12.94,4.76c-1.87-5.16-2.85-10.67-2.85-16.32Zm12.77,32.53c-4.32-4.64-7.61-10-9.77-15.8l12.94-4.77c1.57,4.16,3.92,7.93,6.89,11.14l-10.06,9.43Zm1.23,1.28c-.31-.31-.62-.63-.93-.95l10.06-9.42c2.18,2.3,4.69,4.29,7.44,5.92l-6.58,12.13c-3.61-2.08-6.96-4.65-9.98-7.67Zm10.12,9.27c1.56.86,3.16,1.63,4.81,2.32l-1.68,4.09c-.38-.12-.79-.19-1.21-.19-2.2,0-3.99,1.79-3.99,3.99s1.79,3.99,3.99,3.99,3.99-1.79,3.99-3.99c0-1.62-.97-3.02-2.37-3.64l1.68-4.08c5.24,2.13,10.86,3.33,16.66,3.54l-.14,4.18c-2.16.05-3.9,1.81-3.9,3.99s1.79,3.99,3.99,3.99,3.99-1.79,3.99-3.99c0-2.08-1.6-3.79-3.64-3.97l.14-4.18c.46.01.92.02,1.38.02,5.58,0,11.02-.92,16.14-2.7l1.43,4.07c-1.36.64-2.3,2.01-2.3,3.61,0,2.2,1.79,3.99,3.99,3.99s3.99-1.79,3.99-3.99-1.79-3.99-3.99-3.99c-.45,0-.88.07-1.28.21l-1.43-4.05c2.46-.88,4.84-1.95,7.14-3.22l18.77,34.59h-84.91l18.77-34.59Z"/>
        <g>
          <path class="cls-32" d="m1485.54,538.74c0-.62-.42-1.11-.94-1.11s-.94.5-.94,1.11.42,1.11.94,1.11.94-.5.94-1.11Z"/>
          <polygon class="cls-32" points="1587.52 674.21 1581.72 635.37 1569.84 635.37 1569.84 603.15 1571.31 603.15 1571.31 600.23 1565.55 600.23 1565.55 587.68 1564.84 587.68 1564.84 600.23 1560.86 600.23 1560.86 589.95 1560.15 589.95 1560.15 600.23 1536.14 600.23 1536.14 603.15 1537.78 603.15 1537.78 668.54 1510.36 668.54 1510.36 639.25 1494.74 639.25 1494.74 567.27 1496.17 567.27 1496.17 563.74 1493.05 563.74 1493.05 559.22 1489.46 559.22 1489.46 557.52 1489.46 552.35 1489.46 547.87 1485.13 547.87 1485.13 539.85 1484.61 539.85 1484.09 539.85 1484.09 547.87 1481.75 547.87 1480.34 552.35 1470.89 552.35 1470.89 559.22 1446.15 559.22 1446.15 563.74 1443.03 563.74 1443.03 567.27 1444.46 567.27 1444.46 614.1 1423.77 614.1 1423.77 660.11 1400.8 649.94 1400.8 605.28 1404.51 605.28 1404.51 602 1397.99 602 1397.99 593.09 1370.07 593.09 1370.07 602 1360.96 602 1360.96 593.09 1356.27 593.09 1356.27 602 1351.58 602 1351.58 593.09 1346.43 593.09 1346.43 602 1335.64 602 1335.64 605.28 1337.28 605.28 1337.28 667.18 1326.82 667.18 1326.82 666.53 1324.92 666.53 1324.92 648.89 1326.82 648.89 1326.82 647.47 1324.92 647.47 1324.92 629.83 1326.82 629.83 1326.82 628.42 1324.92 628.42 1324.92 610.78 1326.82 610.78 1326.82 609.36 1324.92 609.36 1324.92 591.72 1326.82 591.72 1326.82 590.31 1324.92 590.31 1324.92 572.67 1326.82 572.67 1326.82 571.25 1324.92 571.25 1324.92 553 1328.17 553 1328.17 551.58 1329.82 551.58 1329.82 547.71 1298.99 547.71 1298.99 543.4 1299.99 543.4 1299.99 542.16 1283.2 542.16 1283.2 543.4 1284.21 543.4 1284.21 547.71 1276.56 547.71 1276.56 551.58 1278.22 551.58 1278.22 553 1281.46 553 1281.46 571.25 1279.57 571.25 1279.57 572.67 1281.46 572.67 1281.46 590.31 1279.57 590.31 1279.57 591.72 1281.46 591.72 1281.46 609.36 1279.57 609.36 1279.57 610.78 1281.46 610.78 1281.46 628.42 1279.57 628.42 1279.57 629.83 1281.46 629.83 1281.46 647.47 1279.57 647.47 1279.57 648.89 1281.46 648.89 1281.46 666.53 1279.57 666.53 1279.57 667.94 1281.46 667.94 1281.46 682.36 1270.94 682.36 1270.94 626.66 1228.6 626.66 1228.6 667.18 1221.72 667.18 1221.72 540.94 1216.63 540.94 1216.63 544.19 1207.25 546.49 1207.25 544.38 1202.16 544.38 1202.16 547.73 1192.78 550.03 1192.78 547.61 1187.69 547.61 1187.69 551.27 1178.3 553.57 1178.3 551.57 1173.22 551.57 1173.22 554.81 1163.83 557.11 1163.83 555.39 1158.75 555.39 1158.75 679.35 1151.59 679.35 1151.59 613.27 1125.09 613.27 1125.09 653.91 1097.91 653.91 1097.91 619.25 1094.57 619.25 1094.57 607.87 1096.55 607.87 1096.55 606.72 1087.76 606.72 1087.76 603.15 1086.82 603.15 1086.82 606.72 1084.01 606.72 1084.01 588.35 1083.31 588.35 1083.31 606.72 1079.64 606.72 1079.64 607.87 1081.8 607.87 1081.8 619.25 1063.87 619.25 1063.87 645.69 1046.41 645.69 1037.29 679.35 1019 679.35 1019 569.43 994.78 569.43 994.78 565.49 996.15 565.49 996.15 564.11 977.81 564.11 977.81 565.49 979.25 565.49 979.25 569.43 979.25 575.76 979.25 651.05 967.83 651.05 967.83 622.6 971.89 622.6 971.89 620.03 943.15 620.03 943.15 602.84 937.67 602.84 937.67 599.31 925.43 599.31 925.43 602.84 915.47 602.84 915.47 664.2 882.81 664.2 882.81 618.69 855.3 618.69 855.3 654.64 831.44 654.64 831.44 677.64 814.22 677.64 814.22 648.72 791.59 648.72 791.59 673.37 771.1 673.37 771.1 690.82 791.59 690.82 798.52 690.82 809.83 690.82 814.22 690.82 831.44 690.82 855.3 690.82 863.33 690.82 867.62 690.82 882.81 690.82 915.47 690.82 925.43 690.82 937.67 690.82 943.15 690.82 964.59 690.82 967.83 690.82 979.25 690.82 998.4 690.82 1007.84 690.82 1019 690.82 1063.87 690.82 1074.23 690.82 1091.72 690.82 1097.91 690.82 1125.55 690.82 1132.97 690.82 1158.75 690.82 1161.29 690.82 1163.83 690.82 1173.22 690.82 1178.3 690.82 1187.69 690.82 1191.94 690.82 1192.78 690.82 1202.16 690.82 1207.25 690.82 1215.32 690.82 1216.63 690.82 1219.18 690.82 1221.72 690.82 1228.6 690.82 1263.6 690.82 1268.6 690.82 1270.94 690.82 1281.46 690.82 1299.99 690.82 1316.95 690.82 1324.92 690.82 1337.28 690.82 1367.99 690.82 1400.46 690.82 1400.8 690.82 1423.77 690.82 1436.61 690.82 1444.46 690.82 1449.43 690.82 1487.86 690.82 1494.74 690.82 1502.97 690.82 1510.36 690.82 1537.78 690.82 1558.17 690.82 1562.34 690.82 1569.84 690.82 1615.47 690.82 1615.47 674.21 1587.52 674.21"/>
        </g>
      </g>
      <g>
        <g>
          <polygon class="cls-32" points="122.44 637.44 182.33 637.44 182.33 513.89 184.04 513.89 184.04 510.36 180.32 510.36 180.32 505.84 150.85 505.84 150.85 498.97 139.59 498.97 137.91 494.48 135.13 494.48 135.13 486.47 134.51 486.47 133.89 486.47 133.89 494.48 128.73 494.48 128.73 498.97 128.73 504.14 128.73 505.84 124.45 505.84 124.45 510.36 120.74 510.36 120.74 513.89 122.44 513.89 122.44 637.44"/>
          <path class="cls-32" d="m135.62,485.36c0-.62-.5-1.11-1.11-1.11s-1.11.5-1.11,1.11.5,1.11,1.11,1.11,1.11-.5,1.11-1.11Z"/>
          <polygon class="cls-32" points="678.32 644.67 678.32 478.57 604.58 463.26 612.66 644.67 396.27 644.67 396.27 542.05 392.28 542.05 392.28 480.64 382 480.64 382 464.19 378.33 464.19 378.33 440.06 358.09 440.06 358.09 422.33 356.29 422.33 356.29 440.06 352.32 440.06 352.32 417.86 350.52 417.86 350.52 440.06 337.73 440.06 337.73 480.64 331.12 480.64 331.12 542.05 325.45 542.05 325.45 644.67 267.91 644.67 267.91 508.06 268.9 508.06 268.9 506.48 261.82 506.48 261.82 496.99 262.74 496.99 262.74 495.47 256.24 495.47 256.24 490.01 256.82 490.01 256.82 488.85 254.02 488.85 254.02 483.69 251.35 483.69 250.93 483.69 250.93 465.29 250.64 465.29 250.27 465.29 249.9 465.29 249.9 483.69 248.65 483.69 248.65 473.43 248.36 473.43 248 473.43 247.63 473.43 247.63 483.69 244.54 483.69 244.54 488.85 241.31 488.85 241.31 490.01 242.32 490.01 242.32 495.47 235.82 495.47 235.82 496.99 236.74 496.99 236.74 506.48 229.66 506.48 229.66 508.06 230.65 508.06 230.65 644.67 38.73 644.67 38.73 663.3 822.09 663.3 822.09 644.67 678.32 644.67"/>
        </g>
        <path class="cls-32" d="m808,661.44v-16.77h-23.58l-8.92-66.02h-1.34v-7.93h-4.69v7.93h-1.16v-2.97h-3.28v2.97h-6.8v-6.91h-1.88v-4.8h-13.36v4.8h-1.87v6.91h-1.87v39.65h-11.87v-100.61h-3.91v-22.06h-1.25v22.06h-2.97v-30.61h-1.25v30.61h-2.58v-16.57h-1.25v16.57h-23.05v71.41h-25.62v46.26h-23.93l-19-35.03c3.2-1.84,6.22-4.06,8.98-6.64l3.9,4.16c-.84.73-1.37,1.81-1.37,3,0,2.2,1.79,3.99,3.99,3.99s3.99-1.79,3.99-3.99-1.79-3.99-3.99-3.99c-.84,0-1.63.26-2.27.71l-3.92-4.19c.33-.31.66-.63.99-.96,4.11-4.11,7.41-8.83,9.8-13.94l4.34,2c-.08.31-.12.64-.12.98,0,2.2,1.79,3.99,3.99,3.99s3.99-1.79,3.99-3.99-1.79-3.99-3.99-3.99c-1.71,0-3.17,1.08-3.73,2.59l-4.29-1.98c2.64-5.79,4.14-12.08,4.38-18.59l4.67.15c.06,2.15,1.82,3.88,3.99,3.88s3.99-1.79,3.99-3.99-1.79-3.99-3.99-3.99-3.8,1.61-3.97,3.65l-4.67-.15c.01-.46.02-.92.02-1.38,0-5.81-1-11.47-2.93-16.78l3.9-1.44c.61,1.41,2.02,2.4,3.66,2.4,2.2,0,3.99-1.79,3.99-3.99s-1.79-3.99-3.99-3.99-3.99,1.79-3.99,3.99c0,.41.06.8.17,1.17l-3.9,1.44c-2.22-5.96-5.61-11.47-10.05-16.24l3.05-2.86c.72.68,1.69,1.1,2.75,1.1,2.2,0,3.99-1.79,3.99-3.99s-1.79-3.99-3.99-3.99-3.99,1.79-3.99,3.99c0,.98.35,1.87.93,2.56l-3.05,2.86c-.31-.33-.63-.66-.96-.99-4.62-4.62-10.01-8.21-15.87-10.65l1.68-4.09c.38.12.79.19,1.21.19,2.2,0,3.99-1.79,3.99-3.99s-1.79-3.99-3.99-3.99-3.99,1.79-3.99,3.99c0,1.62.97,3.02,2.37,3.64l-1.68,4.08c-5.24-2.13-10.86-3.33-16.66-3.54l.18-5.59s.08,0,.13,0c2.2,0,3.99-1.79,3.99-3.99s-1.79-3.99-3.99-3.99-3.99,1.79-3.99,3.99c0,2.01,1.49,3.67,3.42,3.95l-.18,5.61c-.46-.01-.92-.02-1.38-.02-5.58,0-11.01.92-16.14,2.7l-1.61-4.56c1.45-.6,2.47-2.02,2.47-3.69,0-2.2-1.79-3.99-3.99-3.99s-3.99,1.79-3.99,3.99,1.79,3.99,3.99,3.99c.38,0,.75-.05,1.1-.15l1.61,4.56c-6.21,2.21-11.94,5.69-16.89,10.29l-2.91-3.11c.65-.71,1.05-1.66,1.05-2.7,0-2.2-1.79-3.99-3.99-3.99s-3.99,1.79-3.99,3.99,1.79,3.99,3.99,3.99c1,0,1.92-.37,2.62-.98l2.91,3.1c-.33.31-.66.63-.99.96-4.11,4.11-7.41,8.83-9.8,13.94l-3.7-1.71c.13-.4.21-.83.21-1.27,0-2.2-1.79-3.99-3.99-3.99s-3.99,1.79-3.99,3.99,1.79,3.99,3.99,3.99c1.6,0,2.98-.94,3.62-2.31l3.68,1.7c-2.64,5.79-4.14,12.08-4.38,18.59l-4.75-.15c-.06-2.15-1.82-3.88-3.99-3.88s-3.99,1.79-3.99,3.99,1.79,3.99,3.99,3.99,3.8-1.61,3.97-3.66l4.75.15c-.01.46-.02.92-.02,1.38,0,5.81,1,11.47,2.93,16.78l-3.9,1.44c-.61-1.41-2.02-2.4-3.66-2.4-2.2,0-3.99,1.79-3.99,3.99s1.79,3.99,3.99,3.99,3.99-1.79,3.99-3.99c0-.41-.06-.8-.17-1.17l3.9-1.44c2.22,5.96,5.61,11.47,10.05,16.24l-3.05,2.86c-.72-.68-1.69-1.1-2.75-1.1-2.2,0-3.99,1.79-3.99,3.99s1.79,3.99,3.99,3.99,3.99-1.79,3.99-3.99c0-.98-.35-1.87-.93-2.56l3.05-2.86c.31.33.63.66.96.99,3.11,3.11,6.57,5.76,10.29,7.9l-19,35.03h-15.39v-23.75h-6.27v-45.09h2.44v-.98h-53.91v.98h2.44v22.74h-5.28l-5.04,25.92v-84.99h-2.21v-30.78h-11.14v-11.72h-5.96v-9.84h-2.09v-16.87h-.54v16.87h-2.09v9.84h-5.96v11.72h-11.05v30.78h-2.3v55.88h-17.14v49.29h-56.86v-95.3h4.57v-1.5h-4.57v-2.68h-5.79v-4.41h-47.37v4.41h-5.79v2.68h-4.57v1.5h4.57v59.33h-7.75v-11.13h-47.8v13.59h-10.42v25.31h-16.87v-82.73h-5.62v-5.63h-4.45v-14.88h-.94v14.88h-2.11v-18.63h-.94v18.63h-2.59v5.63h-1.39v82.73h-34.92v-48.52h1.64v-3.28h-10.78v-8.91h-5.16v8.91h-4.69v-8.91h-4.69v8.91h-9.12v-8.91h-27.91v8.91h-6.52v3.28h3.71v18.28h-10.31v41.25h-14.16v-11.02h-15.76v24.02h-19.05v10.25H10.62v29.38h822.49v-29.38h-25.11Zm-186.07-62.27l-6.58-12.13c2.11-1.24,4.07-2.71,5.86-4.36l9.43,10.06c-2.68,2.49-5.6,4.65-8.71,6.44Zm-24.64-38.92c.16.05.33.09.5.11l-1,30.69c-3.93-.15-7.7-.99-11.17-2.39l11.67-28.41Zm-12.08,28.24c-1.12-.47-2.22-1-3.27-1.59l14.64-26.99c.09.06.19.12.3.18l-11.67,28.41Zm13.02-28.12c.19,0,.37-.04.54-.08l10.21,28.96c-3.41,1.18-7.08,1.82-10.89,1.82-.29,0-.58,0-.86-.01l1-30.69Zm.96-.23c.15-.07.29-.14.42-.23l14.64,26.99c-1.55.86-3.17,1.6-4.85,2.21l-10.21-28.96Zm2.46,1.68l19.09,20.37c-1.75,1.62-3.66,3.05-5.72,4.26l-13.37-24.64Zm-.84-1.54l-.55-1.02c.06-.08.11-.16.16-.25l27.88,12.87c-1.78,3.77-4.24,7.16-7.24,10.01l-20.25-21.61Zm-.21-1.67c.07-.19.12-.4.14-.61l30.69,1c-.17,4.44-1.21,8.65-2.96,12.48l-27.88-12.87Zm.16-1.05c0-.2-.04-.39-.09-.58l28.82-10.61c1.28,3.54,1.98,7.35,1.98,11.33,0,.29,0,.58-.01.86l-30.69-1Zm-.25-1c-.09-.19-.2-.37-.33-.53l22.4-20.99c2.91,3.14,5.22,6.84,6.75,10.91l-28.82,10.61Zm-.63-.86c-.17-.16-.37-.29-.58-.4l11.67-28.41c4.3,1.81,8.14,4.49,11.31,7.82l-22.4,20.99Zm-.99-.57c-.16-.05-.33-.09-.5-.11l1-30.69c3.93.15,7.7.99,11.17,2.39l-11.67,28.41Zm-.94-.12c-.19,0-.37.04-.54.08l-10.21-28.96c3.41-1.18,7.08-1.82,10.89-1.82.29,0,.58,0,.86.01l-1,30.69Zm-.96.23c-.2.09-.39.21-.57.35l-20.99-22.4c3.25-3.01,7.1-5.38,11.35-6.91l10.21,28.96Zm-.89.65c-.13.15-.25.31-.34.48l-27.88-12.87c1.78-3.77,4.24-7.16,7.24-10l20.99,22.4Zm-.53.88c-.07.19-.12.4-.14.61l-30.69-1c.17-4.44,1.21-8.65,2.96-12.48l27.88,12.87Zm-.16,1.05c0,.2.04.39.09.58l-28.82,10.61c-1.28-3.54-1.98-7.35-1.98-11.33,0-.29,0-.58.01-.86l30.69,1Zm.25,1c.07.15.16.3.26.44l-.18.34-22.14,20.75c-2.91-3.14-5.22-6.84-6.75-10.91l28.82-10.61Zm-.6,2.01l-13.9,25.62c-2.69-1.59-5.13-3.54-7.27-5.79l21.17-19.84Zm-13.45,26.65c1.08.6,2.19,1.14,3.34,1.62l-5.24,12.76c-1.6-.66-3.16-1.42-4.68-2.26l6.58-12.13Zm3.75,1.79c3.55,1.43,7.38,2.29,11.4,2.44l-.45,13.76c-5.63-.2-11.09-1.38-16.19-3.45l5.24-12.76Zm11.84,2.46c.29,0,.59.01.88.01,3.89,0,7.63-.66,11.11-1.86l4.58,13.01c-4.98,1.72-10.27,2.62-15.69,2.62-.44,0-.89,0-1.33-.02l.45-13.76Zm12.41-2c1.72-.62,3.37-1.37,4.95-2.25l6.58,12.13c-2.23,1.23-4.55,2.28-6.94,3.13l-4.58-13.01Zm22.28,1.77c-.31.31-.63.62-.96.93l-9.42-10.06c3.05-2.9,5.57-6.36,7.39-10.21l12.53,5.78c-2.33,4.97-5.53,9.56-9.53,13.56Zm9.72-13.96l-12.52-5.78c1.78-3.91,2.84-8.21,3.02-12.74l13.76.45c-.23,6.33-1.69,12.45-4.26,18.08Zm4.29-19.85c0,.44,0,.89-.02,1.33l-13.76-.45c0-.29.01-.59.01-.88,0-4.06-.71-7.95-2.02-11.56l12.94-4.76c1.87,5.16,2.85,10.67,2.85,16.32Zm-12.77-32.53c4.32,4.64,7.61,10,9.77,15.8l-12.94,4.77c-1.57-4.16-3.93-7.93-6.89-11.14l10.06-9.43Zm-1.23-1.28c.31.31.62.63.93.95l-10.06,9.42c-3.23-3.4-7.15-6.14-11.54-7.98l5.24-12.76c5.7,2.37,10.93,5.86,15.43,10.36Zm-32.04-13.97c5.63.2,11.1,1.38,16.19,3.44l-5.24,12.76c-3.55-1.43-7.38-2.29-11.4-2.44l.45-13.76Zm-1.77-.03c.44,0,.89,0,1.33.02l-.45,13.76c-.29,0-.59-.01-.88-.01-3.89,0-7.63.66-11.11,1.86l-4.58-13.01c4.98-1.72,10.27-2.62,15.69-2.62Zm-16.11,2.77l4.58,13.01c-4.33,1.56-8.26,3.98-11.58,7.05l-9.43-10.06c4.81-4.47,10.38-7.85,16.42-10Zm-17.7,11.24c.31-.31.63-.62.96-.93l9.42,10.06c-3.05,2.9-5.57,6.36-7.39,10.21l-12.53-5.78c2.33-4.97,5.53-9.56,9.53-13.56Zm-9.72,13.96l12.52,5.78c-1.78,3.91-2.84,8.21-3.02,12.74l-13.76-.45c.23-6.33,1.69-12.45,4.26-18.07Zm-4.29,19.85c0-.44,0-.89.02-1.33l13.76.45c0,.29-.01.59-.01.88,0,4.05.71,7.95,2.02,11.56l-12.94,4.76c-1.87-5.16-2.85-10.67-2.85-16.32Zm12.77,32.53c-4.32-4.64-7.61-10-9.77-15.8l12.94-4.77c1.57,4.16,3.92,7.93,6.89,11.14l-10.06,9.43Zm1.23,1.28c-.31-.31-.62-.63-.93-.95l10.06-9.42c2.18,2.3,4.69,4.29,7.44,5.92l-6.58,12.13c-3.61-2.08-6.96-4.65-9.98-7.67Zm10.12,9.27c1.56.86,3.16,1.63,4.81,2.32l-1.68,4.09c-.38-.12-.79-.19-1.21-.19-2.2,0-3.99,1.79-3.99,3.99s1.79,3.99,3.99,3.99,3.99-1.79,3.99-3.99c0-1.62-.97-3.02-2.37-3.64l1.68-4.08c5.24,2.13,10.86,3.33,16.66,3.54l-.14,4.18c-2.16.05-3.9,1.81-3.9,3.99s1.79,3.99,3.99,3.99,3.99-1.79,3.99-3.99c0-2.08-1.6-3.79-3.64-3.97l.14-4.18c.46.01.92.02,1.38.02,5.58,0,11.02-.92,16.14-2.7l1.43,4.07c-1.36.64-2.3,2.01-2.3,3.61,0,2.2,1.79,3.99,3.99,3.99s3.99-1.79,3.99-3.99-1.79-3.99-3.99-3.99c-.45,0-.88.07-1.28.21l-1.43-4.05c2.46-.88,4.84-1.95,7.14-3.22l18.77,34.59h-84.91l18.77-34.59Z"/>
        <g>
          <path class="cls-32" d="m714.44,538.74c0-.62-.42-1.11-.94-1.11s-.94.5-.94,1.11.42,1.11.94,1.11.94-.5.94-1.11Z"/>
          <polygon class="cls-32" points="816.42 674.21 810.62 635.37 798.74 635.37 798.74 603.15 800.21 603.15 800.21 600.23 794.44 600.23 794.44 587.68 793.74 587.68 793.74 600.23 789.76 600.23 789.76 589.95 789.05 589.95 789.05 600.23 765.04 600.23 765.04 603.15 766.68 603.15 766.68 668.54 739.26 668.54 739.26 639.25 723.64 639.25 723.64 567.27 725.07 567.27 725.07 563.74 721.95 563.74 721.95 559.22 718.36 559.22 718.36 557.52 718.36 552.35 718.36 547.87 714.03 547.87 714.03 539.85 713.51 539.85 712.99 539.85 712.99 547.87 710.65 547.87 709.24 552.35 699.79 552.35 699.79 559.22 675.05 559.22 675.05 563.74 671.93 563.74 671.93 567.27 673.36 567.27 673.36 614.1 652.67 614.1 652.67 660.11 629.7 649.94 629.7 605.28 633.41 605.28 633.41 602 626.89 602 626.89 593.09 598.97 593.09 598.97 602 589.86 602 589.86 593.09 585.17 593.09 585.17 602 580.48 602 580.48 593.09 575.33 593.09 575.33 602 564.54 602 564.54 605.28 566.18 605.28 566.18 667.18 555.72 667.18 555.72 666.53 553.82 666.53 553.82 648.89 555.72 648.89 555.72 647.47 553.82 647.47 553.82 629.83 555.72 629.83 555.72 628.42 553.82 628.42 553.82 610.78 555.72 610.78 555.72 609.36 553.82 609.36 553.82 591.72 555.72 591.72 555.72 590.31 553.82 590.31 553.82 572.67 555.72 572.67 555.72 571.25 553.82 571.25 553.82 553 557.07 553 557.07 551.58 558.72 551.58 558.72 547.71 527.89 547.71 527.89 543.4 528.89 543.4 528.89 542.16 512.1 542.16 512.1 543.4 513.11 543.4 513.11 547.71 505.46 547.71 505.46 551.58 507.12 551.58 507.12 553 510.36 553 510.36 571.25 508.47 571.25 508.47 572.67 510.36 572.67 510.36 590.31 508.47 590.31 508.47 591.72 510.36 591.72 510.36 609.36 508.47 609.36 508.47 610.78 510.36 610.78 510.36 628.42 508.47 628.42 508.47 629.83 510.36 629.83 510.36 647.47 508.47 647.47 508.47 648.89 510.36 648.89 510.36 666.53 508.47 666.53 508.47 667.94 510.36 667.94 510.36 682.36 499.84 682.36 499.84 626.66 457.5 626.66 457.5 667.18 450.62 667.18 450.62 540.94 445.53 540.94 445.53 544.19 436.15 546.49 436.15 544.38 431.06 544.38 431.06 547.73 421.68 550.03 421.68 547.61 416.59 547.61 416.59 551.27 407.2 553.57 407.2 551.57 402.12 551.57 402.12 554.81 392.73 557.11 392.73 555.39 387.65 555.39 387.65 679.35 380.49 679.35 380.49 613.27 353.99 613.27 353.99 653.91 326.81 653.91 326.81 619.25 323.47 619.25 323.47 607.87 325.45 607.87 325.45 606.72 316.66 606.72 316.66 603.15 315.72 603.15 315.72 606.72 312.91 606.72 312.91 588.35 312.21 588.35 312.21 606.72 308.54 606.72 308.54 607.87 310.7 607.87 310.7 619.25 292.77 619.25 292.77 645.69 275.31 645.69 266.19 679.35 247.9 679.35 247.9 569.43 223.68 569.43 223.68 565.49 225.05 565.49 225.05 564.11 206.71 564.11 206.71 565.49 208.15 565.49 208.15 569.43 208.15 575.76 208.15 651.05 196.73 651.05 196.73 622.6 200.79 622.6 200.79 620.03 172.05 620.03 172.05 602.84 166.57 602.84 166.57 599.31 154.33 599.31 154.33 602.84 144.37 602.84 144.37 664.2 111.71 664.2 111.71 618.69 84.2 618.69 84.2 654.64 60.34 654.64 60.34 677.64 43.12 677.64 43.12 648.72 20.49 648.72 20.49 673.37 0 673.37 0 690.82 20.49 690.82 27.42 690.82 38.73 690.82 43.12 690.82 60.34 690.82 84.2 690.82 92.23 690.82 96.52 690.82 111.71 690.82 144.37 690.82 154.33 690.82 166.57 690.82 172.05 690.82 193.49 690.82 196.73 690.82 208.15 690.82 227.3 690.82 236.74 690.82 247.9 690.82 292.77 690.82 303.13 690.82 320.62 690.82 326.81 690.82 354.45 690.82 361.87 690.82 387.65 690.82 390.19 690.82 392.73 690.82 402.12 690.82 407.2 690.82 416.59 690.82 420.84 690.82 421.68 690.82 431.06 690.82 436.15 690.82 444.22 690.82 445.53 690.82 448.08 690.82 450.62 690.82 457.5 690.82 492.49 690.82 497.49 690.82 499.84 690.82 510.36 690.82 528.89 690.82 545.85 690.82 553.82 690.82 566.18 690.82 596.89 690.82 629.36 690.82 629.7 690.82 652.67 690.82 665.51 690.82 673.36 690.82 678.32 690.82 716.76 690.82 723.64 690.82 731.87 690.82 739.26 690.82 766.68 690.82 787.07 690.82 791.24 690.82 798.74 690.82 844.37 690.82 844.37 674.21 816.42 674.21"/>
        </g>
      </g>
      <path class="cls-7" d="m1113.5,775.77c0,103.26-83.72,186.98-186.98,186.98-36.66,0-70.87-10.55-99.73-28.79-25.18,18.12-56.07,28.79-89.45,28.79-84.69,0-153.34-68.66-153.34-153.34s68.65-153.34,153.34-153.34c14.22,0,27.99,1.94,41.06,5.57,34.19-44.31,87.82-72.85,148.12-72.85,103.26,0,186.98,83.71,186.98,186.98Z"/>
      <g class="cls-20">
        <path class="cls-2" d="m815.38,732.94c0,1.52-1.23,2.75-2.75,2.75h-17.39c-1.52,0-2.75-1.23-2.75-2.75h0c0-1.52,1.23-2.75,2.75-2.75h17.39c1.52,0,2.75,1.23,2.75,2.75h0Z"/>
        <g>
          <polygon class="cls-2" points="805.62 610.81 804.45 610.81 805.15 730.73 808.6 730.73 805.62 610.81"/>
          <polygon class="cls-2" points="805.25 597.08 805.69 602.43 823.99 559.71 805.25 597.08"/>
          <polygon class="cls-2" points="792.24 614.69 796.66 611.63 750.5 617.15 792.24 614.69"/>
          <polygon class="cls-2" points="814 617.15 809.14 614.86 836.99 652.07 814 617.15"/>
          <path class="cls-2" d="m801.94,614.9l-2.88,115.83h6.09l-.68-115.54c-.21.02-.43.04-.65.04-.66,0-1.3-.12-1.89-.33Z"/>
          <path class="cls-2" d="m808.28,602.62l2.12-3.61,15.98-38.63.5-1.91-2.89,1.24-18.3,42.73-.93,1.7c1.03.17,1.97.63,2.73,1.29l.79-2.81Z"/>
          <path class="cls-2" d="m798.34,608.58l-2.82.72-4.19-.03-41.45,5.47-1.9.53,2.52,1.88,46.16-5.51,1.94-.05c-.23-.61-.35-1.26-.35-1.94,0-.36.04-.72.1-1.06Z"/>
          <path class="cls-2" d="m809.14,614.86l-1.01-1.65c-.65.78-1.5,1.38-2.48,1.71l2.03,2.09,2.06,3.64,25.47,33.16,1.41,1.38.37-3.12-27.85-37.22Z"/>
          <path class="cls-2" d="m803.83,610.81h-1.79l-.1,4.08c.59.21,1.23.33,1.89.33.22,0,.44-.02.65-.04l-.03-4.38h-.62Z"/>
          <path class="cls-2" d="m805.86,605.47l1.43.69.21-.74c-.76-.66-1.69-1.11-2.73-1.29l-.36.66,1.45.67Z"/>
          <path class="cls-2" d="m799.2,609.98l-.11-1.58-.74.19c-.07.34-.1.7-.1,1.06,0,.68.13,1.34.35,1.94l.75-.02-.15-1.59Z"/>
          <path class="cls-2" d="m808.13,613.21l-.39-.65-1.31.92-1.31.89.53.55c.98-.34,1.83-.93,2.48-1.71Z"/>
          <path class="cls-2" d="m808.83,609.64c0,2.76-2.24,5-5,5s-5-2.24-5-5,2.24-5,5-5,5,2.24,5,5Z"/>
          <path class="cls-2" d="m796.93,731.21v.28c0,.8.64,1.44,1.44,1.44h10.92c.79,0,1.44-.64,1.44-1.44v-.28h-13.79Z"/>
          <path class="cls-2" d="m810.73,730.93c0-.79-.64-1.44-1.44-1.44h-10.92c-.8,0-1.44.64-1.44,1.44v.29h13.79v-.29Z"/>
        </g>
      </g>
      <g class="cls-10">
        <path class="cls-2" d="m940.39,749.54c0,1.89-1.54,3.43-3.43,3.43h-21.67c-1.9,0-3.43-1.54-3.43-3.43h0c0-1.89,1.54-3.43,3.43-3.43h21.67c1.89,0,3.43,1.54,3.43,3.43h0Z"/>
        <g>
          <polygon class="cls-2" points="928.23 597.34 926.77 597.34 927.65 746.79 931.94 746.79 928.23 597.34"/>
          <polygon class="cls-2" points="927.77 580.23 928.32 586.9 951.13 533.64 927.77 580.23"/>
          <polygon class="cls-2" points="911.55 602.17 917.06 598.36 859.53 605.23 911.55 602.17"/>
          <polygon class="cls-2" points="938.67 605.24 932.62 602.38 967.33 648.76 938.67 605.24"/>
          <path class="cls-2" d="m923.64,602.43l-3.59,144.36h7.59l-.84-143.99c-.27.03-.53.05-.81.05-.83,0-1.62-.15-2.36-.42Z"/>
          <path class="cls-2" d="m931.55,587.13l2.64-4.5,19.92-48.15.62-2.38-3.6,1.54-22.81,53.25-1.16,2.12c1.29.22,2.45.78,3.4,1.61l.99-3.5Z"/>
          <path class="cls-2" d="m919.16,594.56l-3.52.89-5.22-.04-51.66,6.82-2.37.65,3.14,2.35,57.52-6.87,2.42-.06c-.28-.76-.44-1.57-.44-2.42,0-.45.05-.89.13-1.32Z"/>
          <path class="cls-2" d="m932.62,602.38l-1.26-2.06c-.81.97-1.87,1.72-3.09,2.14l2.53,2.61,2.57,4.54,31.74,41.33,1.75,1.72.46-3.89-34.71-46.38Z"/>
          <path class="cls-2" d="m926,597.34h-2.23l-.13,5.09c.74.27,1.53.42,2.36.42.27,0,.54-.02.81-.05l-.03-5.46h-.77Z"/>
          <path class="cls-2" d="m928.52,590.68l1.78.86.26-.92c-.95-.82-2.11-1.39-3.4-1.61l-.45.82,1.81.84Z"/>
          <path class="cls-2" d="m920.23,596.29l-.14-1.97-.93.23c-.08.43-.13.87-.13,1.32,0,.85.16,1.67.44,2.42l.94-.02-.18-1.98Z"/>
          <path class="cls-2" d="m931.36,600.32l-.49-.8-1.63,1.15-1.64,1.11.67.68c1.22-.42,2.29-1.16,3.09-2.14Z"/>
          <path class="cls-2" d="m932.23,595.88c0,3.44-2.79,6.23-6.23,6.23s-6.23-2.79-6.23-6.23,2.79-6.23,6.23-6.23,6.23,2.79,6.23,6.23Z"/>
          <path class="cls-2" d="m917.4,747.39v.35c0,.99.8,1.79,1.79,1.79h13.6c.99,0,1.79-.8,1.79-1.79v-.35h-17.19Z"/>
          <path class="cls-2" d="m934.59,747.04c0-.99-.8-1.79-1.79-1.79h-13.6c-.99,0-1.79.8-1.79,1.79v.36h17.19v-.36Z"/>
        </g>
      </g>
      <g class="cls-5">
        <path class="cls-2" d="m878.55,714.83c0,1.71-1.39,3.1-3.1,3.1h-19.6c-1.71,0-3.1-1.39-3.1-3.1h0c0-1.71,1.39-3.1,3.1-3.1h19.6c1.71,0,3.1,1.39,3.1,3.1h0Z"/>
        <g>
          <polygon class="cls-2" points="867.55 577.21 866.23 577.21 867.02 712.35 870.91 712.35 867.55 577.21"/>
          <polygon class="cls-2" points="867.13 561.74 867.63 567.77 888.26 519.62 867.13 561.74"/>
          <polygon class="cls-2" points="852.47 581.58 857.45 578.14 805.43 584.35 852.47 581.58"/>
          <polygon class="cls-2" points="876.99 584.35 871.52 581.77 902.9 623.71 876.99 584.35"/>
          <path class="cls-2" d="m863.4,581.81l-3.24,130.53h6.87l-.76-130.2c-.24.03-.48.05-.73.05-.75,0-1.46-.14-2.13-.38Z"/>
          <path class="cls-2" d="m870.55,567.97l2.39-4.07,18.01-43.54.56-2.15-3.26,1.4-20.63,48.15-1.05,1.92c1.17.2,2.22.71,3.07,1.45l.89-3.16Z"/>
          <path class="cls-2" d="m859.35,574.7l-3.18.81-4.72-.04-46.71,6.17-2.14.59,2.84,2.12,52.01-6.21,2.18-.05c-.25-.68-.4-1.42-.4-2.19,0-.41.04-.81.12-1.19Z"/>
          <path class="cls-2" d="m871.52,581.77l-1.14-1.86c-.73.88-1.7,1.55-2.8,1.93l2.29,2.36,2.33,4.1,28.7,37.37,1.58,1.56.42-3.52-31.39-41.94Z"/>
          <path class="cls-2" d="m865.53,577.21h-2.02l-.11,4.6c.67.24,1.38.38,2.13.38.25,0,.49-.02.73-.05l-.03-4.93h-.7Z"/>
          <path class="cls-2" d="m867.81,571.19l1.61.78.23-.83c-.85-.74-1.91-1.26-3.07-1.45l-.41.74,1.64.76Z"/>
          <path class="cls-2" d="m860.31,576.27l-.13-1.78-.84.21c-.08.39-.12.79-.12,1.19,0,.77.15,1.51.4,2.19l.85-.02-.17-1.79Z"/>
          <path class="cls-2" d="m870.38,579.91l-.44-.73-1.47,1.04-1.48,1,.6.62c1.1-.38,2.07-1.05,2.8-1.93Z"/>
          <path class="cls-2" d="m871.17,575.89c0,3.11-2.52,5.64-5.64,5.64s-5.64-2.52-5.64-5.64,2.52-5.64,5.64-5.64,5.64,2.52,5.64,5.64Z"/>
          <path class="cls-2" d="m857.76,712.89v.32c0,.9.73,1.62,1.62,1.62h12.3c.89,0,1.62-.73,1.62-1.62v-.32h-15.54Z"/>
          <path class="cls-2" d="m873.3,712.57c0-.89-.73-1.62-1.62-1.62h-12.3c-.9,0-1.62.73-1.62,1.62v.32h15.54v-.32Z"/>
        </g>
      </g>
      <g>
        <path class="cls-22" d="m1092.28,602.79c4.06-5.68,6.45-12.62,6.45-20.13,0-19.14-15.51-34.65-34.64-34.65-.71,0-1.42.03-2.1.08,4.78-5.95,7.66-13.5,7.66-21.73,0-19.12-15.51-34.65-34.65-34.65s-34.64,15.52-34.64,34.65c0,8.2,2.85,15.73,7.61,21.66-18.93.22-34.21,15.64-34.21,34.64,0,7.23,2.22,13.94,6.02,19.52-18.44,5.08-32,21.97-32,42.04,0,24.08,19.53,43.6,43.62,43.6,12.72,0,24.19-5.45,32.15-14.16,9.11,12.51,23.86,20.65,40.54,20.65,27.67,0,50.11-22.43,50.11-50.09,0-17.23-8.7-32.41-21.92-41.43Z"/>
        <path class="cls-11" d="m1066.15,592.13c-.82-.73-2.06-.65-2.78.15-17.13,19.17-25.5,28.78-29.59,33.72v-56.71c0-1.1-.88-1.97-1.96-1.97s-1.97.87-1.97,1.97v82.73c-8.51-13.52-17.76-25.85-17.87-25.99-.66-.87-1.88-1.04-2.74-.39-.88.65-1.06,1.88-.4,2.75.12.15,11.63,15.49,20.69,30.61.1.14.21.28.33.4v113.82c0,1.1.89,1.98,1.97,1.98s1.96-.88,1.96-1.98v-141.01c2.32-3.27,20.91-24.33,32.52-37.32.72-.79.65-2.05-.15-2.76Z"/>
      </g>
      <path class="cls-17" d="m939.86,682.61c-36.3-23.32-82.78-24.08-120.17-2.55-67.75,39.02-176.3,120.64-123.17,221.2,74.98,141.9,358.69,52.31,384.53,9.58,20.73-34.27-48.97-168.99-141.19-228.23Z"/>
      <g class="cls-15">
        <g>
          <path class="cls-14" d="m810.11,733.65v54.41h125.71v-54.41h-125.71Zm116.82,16.97v25.48h-33.19v-25.48h33.19Zm-98.52-4.32c.11,0,.22,0,.33,0,4.47.17,8.03,3.84,8.03,8.35v20.22h-16.72v-20.22c0-4.5,3.57-8.18,8.04-8.35.11,0,.22,0,.33,0Zm30.58,41.75v-28.62c0-.93.11-1.83.33-2.7.04-.16.08-.33.13-.48.03-.12.07-.23.1-.34,0-.04.02-.09.04-.13.65-1.97,1.83-3.71,3.37-5.04,1.96-1.71,4.5-2.77,7.29-2.82.08,0,.16,0,.24,0s.16,0,.24,0c2.43.04,4.68.85,6.51,2.2.26.19.5.39.75.59,0,0,.02.01.03.02,1.54,1.34,2.71,3.07,3.37,5.05,0,.02.01.04.02.07.04.13.08.27.12.41.04.16.09.31.13.47.22.87.33,1.77.33,2.7v28.62h-23Z"/>
          <path class="cls-18" d="m942.17,732.48c2.16,3.78.36,6.87-3.99,6.87h-129.75c-4.35,0-6.14-3.09-3.99-6.87l20.06-35.1c2.16-3.78,7.48-6.87,11.84-6.87h73.94c4.35,0,9.67,3.09,11.84,6.87l20.06,35.1Z"/>
          <g>
            <g>
              <path class="cls-18" d="m828.41,746.21c-4.65,0-8.44,3.78-8.44,8.44v21.02h16.87v-21.02c0-4.65-3.78-8.44-8.44-8.44Zm8.36,28.67h-16.72v-20.22c0-4.5,3.57-8.18,8.04-8.35.11,0,.22,0,.33,0s.22,0,.33,0c4.47.17,8.03,3.84,8.03,8.35v20.22Z"/>
              <path class="cls-2" d="m838.45,774.88v-20.22c0-5.54-4.5-10.05-10.05-10.05s-10.05,4.5-10.05,10.05v20.22h-1.71v2.97h23.53v-2.97h-1.71Zm-1.69,0h-16.72v-20.22c0-4.5,3.57-8.18,8.04-8.35.11,0,.22,0,.33,0s.22,0,.33,0c4.47.17,8.03,3.84,8.03,8.35v20.22Z"/>
              <path class="cls-2" d="m836.76,754.65v20.22h-16.72v-20.22c0-4.5,3.57-8.18,8.04-8.35.11,0,.22,0,.33,0s.22,0,.33,0c4.47.17,8.03,3.84,8.03,8.35Z"/>
              <path class="cls-2" d="m828.73,746.31c-.11,0-.22,0-.33,0s-.22,0-.33,0c.1-.01.22-.02.33-.02s.22,0,.33.02Z"/>
            </g>
            <g>
              <g>
                <path class="cls-2" d="m881.98,759.43v28.62h-23v-28.62c0-.93.11-1.83.33-2.7.04-.16.08-.33.13-.48.03-.12.07-.23.1-.34,0-.04.02-.09.04-.13.65-1.97,1.83-3.71,3.37-5.04,1.9-1.66,4.36-2.7,7.04-2.8h0c.08,0,.16,0,.24-.02.08,0,.16,0,.24,0s.16,0,.24,0c2.43.04,4.68.85,6.51,2.2.26.19.5.39.75.59,0,0,.02.01.03.02,1.54,1.34,2.71,3.07,3.37,5.05,0,.02.01.04.02.07.04.13.08.27.12.41.04.16.09.31.13.47.22.87.33,1.77.33,2.7Z"/>
                <path class="cls-18" d="m882.48,759.43v28.62h-.5v-28.62c0-.93-.11-1.83-.33-2.7-.04-.16-.08-.32-.13-.47-.04-.14-.07-.27-.12-.41,0-.02-.01-.04-.02-.07-.66-1.97-1.83-3.71-3.37-5.05,0,0-.02-.01-.03-.02-.24-.21-.49-.4-.75-.59-1.83-1.35-4.08-2.16-6.51-2.2-.08,0-.16,0-.24,0s-.16,0-.24,0c-2.78.05-5.33,1.11-7.29,2.82-1.54,1.33-2.72,3.06-3.37,5.04-.02.04-.04.09-.04.13-.04.11-.07.22-.1.34-.04.16-.08.32-.13.48-.22.87-.33,1.77-.33,2.7v28.62h-.5v-28.62c0-6.63,5.39-12.01,12-12.01s11.99,5.39,11.99,12.01Z"/>
                <path class="cls-2" d="m882.97,759.43v28.62h-.99v-28.62c0-.93-.11-1.83-.33-2.7-.03-.16-.07-.32-.13-.47-.03-.14-.07-.27-.12-.41,0-.02-.01-.04-.02-.07-.66-1.97-1.83-3.71-3.37-5.05,0,0-.02-.01-.03-.02-.24-.22-.49-.42-.75-.59-1.83-1.35-4.08-2.16-6.51-2.2-.08,0-.16,0-.24,0s-.16,0-.24,0c-2.78.05-5.33,1.11-7.29,2.82-1.54,1.33-2.72,3.06-3.37,5.04-.02.04-.04.09-.04.13-.04.11-.07.22-.1.34-.05.16-.1.32-.13.48-.22.87-.33,1.77-.33,2.7v28.62h-.99v-28.62c0-6.9,5.6-12.51,12.49-12.51s12.48,5.61,12.48,12.51Z"/>
              </g>
              <path class="cls-2" d="m877.82,788.05h0s.99,0,.99,0h0s-.99,0-.99,0Zm-15.64,0h.99s-.99,0-.99,0h0Zm-2.63-32.15s.02-.09.04-.13h0s-.03.09-.04.13Z"/>
            </g>
            <g>
              <path class="cls-2" d="m927.63,775v-25.13h-34.6v25.13h-1.68v2.84h37.94v-2.84h-1.67Zm-.7,1.09h-33.19v-25.48h33.19v25.48Z"/>
              <rect class="cls-2" x="893.74" y="750.62" width="33.19" height="25.48"/>
            </g>
          </g>
        </g>
        <g>
          <rect class="cls-14" x="827.62" y="689.34" width="19.69" height="17.54"/>
          <rect class="cls-18" x="825.9" y="685.65" width="23.14" height="4.38"/>
          <rect class="cls-18" x="825.9" y="685.65" width="23.14" height="4.38"/>
          <rect class="cls-18" x="824.17" y="683.32" width="26.6" height="4.38"/>
        </g>
      </g>
      <g>
        <path class="cls-22" d="m749.23,608.77c3.87-5.42,6.17-12.05,6.17-19.21,0-18.28-14.81-33.09-33.08-33.09-.68,0-1.34.02-2,.06,4.57-5.68,7.32-12.88,7.32-20.75,0-18.27-14.82-33.09-33.09-33.09s-33.08,14.82-33.08,33.09c0,7.83,2.72,15.03,7.27,20.69-18.09.22-32.68,14.94-32.68,33.09,0,6.89,2.13,13.32,5.75,18.62-17.62,4.86-30.55,20.99-30.55,40.15,0,22.99,18.65,41.65,41.65,41.65,12.15,0,23.1-5.21,30.7-13.53,8.7,11.95,22.8,19.73,38.71,19.73,26.43,0,47.85-21.43,47.85-47.85,0-16.45-8.29-30.95-20.93-39.57Z"/>
        <path class="cls-11" d="m724.28,598.59c-.78-.69-1.97-.63-2.65.15-16.37,18.3-24.35,27.48-28.26,32.19v-54.16c0-1.04-.85-1.88-1.88-1.88s-1.87.84-1.87,1.88v79.02c-8.14-12.91-16.98-24.69-17.08-24.82-.63-.83-1.79-.99-2.63-.37-.82.63-1,1.81-.37,2.62.12.14,11.1,14.79,19.77,29.23.08.14.18.27.31.39v108.7c0,1.03.84,1.88,1.87,1.88s1.88-.85,1.88-1.88v-134.68c2.21-3.1,19.98-23.23,31.07-35.63.68-.77.61-1.96-.16-2.65Z"/>
      </g>
      <g>
        <path class="cls-22" d="m809.17,689.45c1.51-2.12,2.4-4.7,2.4-7.5,0-7.13-5.78-12.91-12.9-12.91-.27,0-.53.01-.78.03,1.78-2.22,2.85-5.03,2.85-8.09,0-7.12-5.78-12.91-12.91-12.91s-12.9,5.78-12.9,12.91c0,3.05,1.06,5.86,2.83,8.07-7.05.08-12.75,5.83-12.75,12.9,0,2.69.83,5.19,2.24,7.27-6.87,1.89-11.92,8.18-11.92,15.66,0,8.97,7.28,16.24,16.25,16.24,4.74,0,9.01-2.03,11.98-5.28,3.39,4.66,8.89,7.69,15.1,7.69,10.31,0,18.67-8.36,18.67-18.66,0-6.42-3.24-12.08-8.17-15.43Z"/>
        <path class="cls-11" d="m799.43,685.48c-.3-.27-.77-.24-1.04.06-6.38,7.14-9.5,10.72-11.02,12.56v-21.13c0-.41-.33-.73-.73-.73s-.73.32-.73.73v30.82c-3.17-5.04-6.62-9.63-6.66-9.68-.25-.32-.7-.39-1.02-.15-.33.24-.39.7-.15,1.03.04.06,4.33,5.77,7.71,11.4.04.05.08.11.12.15v42.4c0,.41.33.74.73.74s.73-.33.73-.74v-52.53c.87-1.22,7.79-9.06,12.12-13.9.27-.3.24-.76-.06-1.03Z"/>
      </g>
      <path class="cls-24" d="m917.4,858.12s-92.24-154.42-225.43-127.39-124.07,150.29-124.07,150.29c0,0,239.11,78.61,240.93,78.61s108.57-101.51,108.57-101.51Z"/>
      <path class="cls-8" d="m1103.36,716.41s-50.87,130.26-212.69,130.26h-176.24s-94.37,1.69-148.36-70.9v186.98l100.95,100.95,237.46,35.84,185.64-28.99s65.64-120.08,67.17-130.26-53.94-223.89-53.94-223.89Z"/>
      <path class="cls-12" d="m628.11,861.94s39.35,25.95,82.77,27.82"/>
      <line class="cls-12" x1="1037.62" y1="857.36" x2="1087.08" y2="818.68"/>
      <g>
        <path class="cls-29" d="m888.77,807.17c0,3.43-2.31,6.21-5.15,6.21s-5.15-2.78-5.15-6.21,2.31-6.21,5.15-6.21,5.15,2.78,5.15,6.21Z"/>
        <path class="cls-4" d="m889.53,807.17c0-2.93-1.55-5.44-3.76-6.48-.31-.34-.74-.55-1.23-.55h-1.39c-.92,0-1.67.75-1.67,1.67v10.72c0,.92.75,1.67,1.67,1.67h1.39c.49,0,.93-.22,1.23-.55,2.2-1.04,3.76-3.55,3.76-6.48Z"/>
      </g>
      <g class="cls-6">
        <g>
          <path class="cls-2" d="m988.31,838.49c-.28-.29-.67-.56-1.16-.8.86-13.2,1.23-38.1-6.31-54.46-8.93-19.36-70.95-10.79-93.75-1.95-18.43,7.14-23.73,48.72-25.08,64.42-8.17.09-17.98,1.18-22.82,5.43-9.18,8.04-8.82,15.91-7.93,22.42.89,6.51-.9,8.64,17.41,7.05,18.3-1.59,139.95-12.17,139.95-12.17,0,0,8.04-21.11-.3-29.94Z"/>
          <path class="cls-26" d="m984.16,860.09h11.43c1.11,0,2.02.9,2.02,2.02v3.04c0,1.11-.9,2.02-2.02,2.02h-11.43c-1.11,0-2.02-.9-2.02-2.02v-3.04c0-1.11.9-2.02,2.02-2.02Z" transform="translate(-71.08 88.98) rotate(-4.97)"/>
          <g>
            <path class="cls-29" d="m834.85,868.85c.3,3.42-1.76,6.39-4.59,6.63s-5.37-2.32-5.67-5.74c-.3-3.42,1.76-6.39,4.59-6.63s5.37,2.32,5.67,5.74Z"/>
            <path class="cls-26" d="m835.61,868.79c-.25-2.92-2.02-5.28-4.3-6.13-.33-.31-.79-.49-1.28-.45l-1.39.12c-.92.08-1.6.89-1.52,1.81l.93,10.68c.08.92.89,1.6,1.81,1.52l1.39-.12c.49-.04.91-.3,1.18-.66,2.1-1.23,3.43-3.86,3.18-6.78Z"/>
          </g>
          <path class="cls-26" d="m831.44,870.47h159.65c1.18,0,2.14.96,2.14,2.14v2.14c0,1.18-.96,2.14-2.14,2.14h-159.64c-1.18,0-2.14-.96-2.14-2.14v-2.14c0-1.18.96-2.14,2.14-2.14Z" transform="translate(-72.24 82.21) rotate(-4.97)"/>
          <path d="m875.1,878.54c.69,7.92-5.17,14.89-13.09,15.58s-14.89-5.17-15.58-13.09c-.69-7.91,5.17-14.89,13.09-15.58s14.89,5.17,15.58,13.09Z"/>
          <path class="cls-26" d="m877.47,880.86c-1.38.12-2.6-.9-2.72-2.29-.67-7.71-7.48-13.43-15.19-12.76s-13.43,7.48-12.76,15.19c.12,1.38-.9,2.6-2.29,2.72s-2.6-.9-2.72-2.29c-.91-10.47,6.87-19.73,17.34-20.64s19.73,6.87,20.64,17.34c.12,1.38-.9,2.6-2.29,2.72Z"/>
          <path class="cls-30" d="m869.32,879.04c.41,4.72-3.09,8.89-7.81,9.3s-8.89-3.08-9.3-7.81,3.09-8.89,7.81-9.3,8.89,3.09,9.3,7.81Z"/>
          <path class="cls-16" d="m864,879.5c.16,1.79-1.17,3.36-2.95,3.52s-3.36-1.17-3.52-2.95,1.17-3.36,2.95-3.52,3.36,1.17,3.52,2.95Z"/>
          <path d="m977.94,869.6c.69,7.92-5.17,14.89-13.09,15.58-7.91.69-14.89-5.17-15.58-13.09s5.17-14.89,13.09-15.58,14.89,5.17,15.58,13.09Z"/>
          <path class="cls-26" d="m980.31,871.92c-1.38.12-2.6-.9-2.72-2.29-.67-7.71-7.48-13.43-15.19-12.76s-13.43,7.48-12.76,15.19c.12,1.38-.9,2.6-2.29,2.72s-2.6-.9-2.72-2.29c-.91-10.47,6.87-19.73,17.34-20.64,10.47-.91,19.73,6.87,20.64,17.34.12,1.38-.91,2.6-2.29,2.72Z"/>
          <path class="cls-30" d="m972.16,870.1c.41,4.72-3.09,8.89-7.81,9.3s-8.88-3.09-9.3-7.81c-.41-4.72,3.09-8.89,7.81-9.3s8.89,3.09,9.3,7.81Z"/>
          <path class="cls-16" d="m966.84,870.56c.16,1.79-1.17,3.36-2.96,3.52s-3.36-1.17-3.52-2.95,1.17-3.36,2.95-3.52,3.36,1.17,3.52,2.95Z"/>
          <path class="cls-26" d="m882.02,870.99s61.23-14.77,61.47-11.58c.24,3.19,1.21,6.13-3.44,6.53s-58.02,5.04-58.02,5.04Z"/>
          <path class="cls-26" d="m890.99,791.33c-4.24,1.64-10.3,10.51-14.6,30.47-1.43,6.63-2.37,13.12-2.98,18.4l55.62-4.84-4.49-51.61c-14.29,1.81-26.77,4.95-33.56,7.58Z"/>
          <path class="cls-26" d="m971.05,787.74c-1.14-2.46-12.51-7.1-38.89-4.8-1.08.09-2.16.2-3.23.31l4.5,51.74,43.27-3.76c.47-13.56-.31-31.9-5.65-43.48Z"/>
          <g>
            <path class="cls-26" d="m929.45,840.26c.13,1.52-.99,2.85-2.51,2.98l-7.09.62c-1.52.13-2.85-.99-2.98-2.51h0c-.13-1.52.99-2.85,2.51-2.98l7.09-.62c1.52-.13,2.85.99,2.98,2.51h0Z"/>
            <path class="cls-26" d="m976.53,836.17c.13,1.52-.99,2.85-2.51,2.98l-7.09.62c-1.52.13-2.85-.99-2.98-2.51h0c-.13-1.52.99-2.85,2.51-2.98l7.09-.62c1.52-.13,2.85.99,2.98,2.51h0Z"/>
          </g>
          <path class="cls-19" d="m890.99,791.33c-4.24,1.64-10.3,10.51-14.6,30.47-1.43,6.63-2.37,13.12-2.98,18.4l18.53-1.61,31.27-54.66c-13.72,1.83-25.64,4.85-32.21,7.4Z"/>
          <path class="cls-19" d="m932.15,782.94c-1.08.09-2.16.2-3.23.31l4.5,51.74,2.94-.26,28.73-50.22c-5.95-1.74-16.54-2.99-32.94-1.57Z"/>
          <rect class="cls-26" x="871.65" y="826.33" width="8.68" height="17.06" rx="1.8" ry="1.8" transform="translate(-69.02 79.01) rotate(-4.97)"/>
          <path class="cls-2" d="m1019.65,858.15c-1.94-3.63-7.34.7-7.34.7,0,0-.12-3.48-4.17-2.29-2.3.68-2.88,2.37-2.95,3.71l-3.56.31.32,3.66,3.44-.3c.08,1.68.39,3.99,1.45,4.64,1.72,1.05,2.71-1.99,2.71-1.99,0,0,1.11,4.43,4.96,3.07,3.85-1.35.51-6.56.51-6.56,3.13.67,6.56-1.33,4.62-4.96Z"/>
        </g>
        <path class="cls-19" d="m908.85,789.48s-16.89,2.91-18.58,6.31c-1.69,3.39-9.41,24.63-9.41,24.63,0,0,12.29-25.21,27.98-30.94Z"/>
      </g>
      <path class="cls-31" d="m1200.95,1330.4c-2.34-.37-4.67-.92-6.96-1.66L150.71,991.74c-23.93-7.73-37.05-33.39-29.33-57.31L396.79,81.82c3.71-11.49,11.83-21.03,22.58-26.53,8.61-4.41,18.34-5.93,27.77-4.45,2.34.37,4.67.92,6.96,1.66l1043.28,337c23.93,7.73,37.06,33.39,29.33,57.31l-275.41,852.61c-3.71,11.49-11.83,21.03-22.58,26.53-8.61,4.41-18.34,5.93-27.77,4.45Zm-472.82-844.89c-1.8,2.06-3.79,3.95-5.93,5.64l-3.22,2.55c-80.86,64.11-84.81,90.89-89.01,119.25-3.19,21.6-7.56,51.19-25.57,83.9-10.51,19.08-10.88,22.53-10.69,27.95.45,12.68,6.99,36.22,17.81,75.21,1.31,4.71,2.67,9.61,4.08,14.7,14.47,52.38,23.76,57.56,119.7,97.32,7.14,2.96,14.56,6.03,22.26,9.26,9.41,3.94,17.79,7.1,24.92,9.4,6.62,2.14,11.7,3.47,15.53,4.07,5.18.81,7.33.48,22.96-3.54,25.86-6.65,64.93-16.69,132.99-13.92,58.42,2.38,81.89-16.9,93-76.42,7.8-41.8,23-78.74,37.7-114.47,14.71-35.76,28.61-69.53,33.91-105.57,1.33-9.01,1.25-17.74-13.2-33.35-15.97-17.25-44.36-35.97-84.38-55.64-42.78-21.03-67.38-40-87.15-55.25-21.43-16.52-33.23-25.63-71.6-38.02-5.12-1.65-10.64-3.33-16.4-4.97-2.44-.7-4.95-1.25-7.46-1.64-43.68-6.83-92.46,34.15-107.86,50.8l-2.4,2.73Z"/>
      <path class="cls-28" d="m249.12,1036.16L381.01,204.24l1017.96,161.37-131.88,831.92-1017.96-161.37ZM829.6,418.99c-5.48-.87-11.34-1.69-17.42-2.44-80.61-9.95-140.53,80.68-141.11,81.6l-2.07,3.26-2.62,2.84c-77.26,83.74-76.97,118.99-76.68,153.08.16,19.19.35,40.93-8.99,66.68-15.47,42.6-12.57,48.98,22.88,127.07,1.89,4.17,3.86,8.5,5.9,13,30.27,66.91,59.01,73.87,154.23,96.95,7.02,1.7,14.31,3.47,21.88,5.33,10.46,2.57,19.9,4.53,28.03,5.82,29.78,4.72,38.47.98,59.47-8.07,21.99-9.47,52.1-22.45,109.45-29.04,75.96-8.73,110.86-47.51,113.16-125.75,1.05-35.54,9.27-69.88,17.22-103.09,8.69-36.3,17.68-73.83,17.33-113.33-.22-24.99-10.52-44.19-33.37-62.25-21.78-17.21-54.58-32.48-100.27-46.7-38.68-12.04-61.22-24.4-81.11-35.31-23.87-13.09-41.12-22.55-85.9-29.65Z"/>
      <path class="cls-33" d="m386.92,356.15v707.28h883.34V356.15H386.92Zm747.99,408.88c8.14,63.32-3.56,145.24-115,176.28-111.43,31.04-82.43,68.18-191.32,59.03-108.89-9.16-155.7-7.64-207.6-86.51-51.91-78.87-64.63-94.13-52.92-154.68,11.7-60.55-43.76-84.98,52.92-230,0,0,50.37-116.52,153.66-120.08,103.3-3.56,103.3,23.41,187.25,35.62,83.96,12.21,160.29,38.16,173.01,113.98,12.72,75.81-8.14,143.04,0,206.36Z"/>
      <path class="cls-3" d="m240.89,300.18v809.05h1083.81V300.18H240.89Zm609.43,729.81c-181.76,0-329.11-147.35-329.11-329.11s147.35-329.11,329.11-329.11,329.11,147.35,329.11,329.11-147.34,329.11-329.11,329.11Z"/>
    </g>
  </g>
  <g id="Layer_2-2" data-name="Layer 2">
    <g class="cls-25">
      <path class="cls-2" d="m698.21,594.69h-228.42c3.72-16.1,16.74-28.65,33.09-31.67,6.94-20.7,26.5-35.61,49.54-35.61,24.49,0,45.05,16.87,50.69,39.61,6.81.61,13.15,2.85,18.63,6.34,5.93-6.77,14.64-11.05,24.35-11.05,13.34,0,24.8,8.07,29.76,19.58,9.46.17,17.73,5.25,22.36,12.8Z"/>
    </g>
    <g class="cls-1">
      <path class="cls-2" d="m1195.83,594.69h-228.42c3.72-16.1,16.74-28.65,33.09-31.67,6.94-20.7,26.5-35.61,49.54-35.61,24.49,0,45.05,16.87,50.69,39.61,6.81.61,13.15,2.85,18.63,6.34,5.93-6.77,14.64-11.05,24.35-11.05,13.34,0,24.8,8.07,29.76,19.58,9.46.17,17.73,5.25,22.36,12.8Z"/>
    </g>
    <g class="cls-9">
      <path class="cls-2" d="m719.59,710.66h-178.44c2.91-12.58,13.07-22.38,25.85-24.74,5.42-16.17,20.7-27.82,38.7-27.82,19.13,0,35.2,13.18,39.6,30.95,5.32.47,10.27,2.23,14.55,4.95,4.63-5.29,11.44-8.63,19.02-8.63,10.42,0,19.37,6.3,23.25,15.3,7.39.14,13.85,4.1,17.47,10Z"/>
    </g>
    <g class="cls-23">
      <path class="cls-2" d="m1262.47,710.66h-178.44c2.91-12.58,13.07-22.38,25.85-24.74,5.42-16.17,20.7-27.82,38.7-27.82,19.13,0,35.2,13.18,39.6,30.95,5.32.47,10.27,2.23,14.55,4.95,4.63-5.29,11.44-8.63,19.02-8.63,10.42,0,19.37,6.3,23.25,15.3,7.39.14,13.85,4.1,17.47,10Z"/>
    </g>
  </g>
</svg>