<svg id="visual" viewBox="0 0 900 600" width="900" height="600" xmlns="http://www.w3.org/2000/svg" xmlns:xlink="http://www.w3.org/1999/xlink" version="1.1"><path d="M0 109L13.7 102C27.3 95 54.7 81 82 70C109.3 59 136.7 51 163.8 51C191 51 218 59 245.2 59C272.3 59 299.7 51 327 48C354.3 45 381.7 47 409 59C436.3 71 463.7 93 491 97C518.3 101 545.7 87 573 81C600.3 75 627.7 77 654.8 77C682 77 709 75 736.2 72C763.3 69 790.7 65 818 65C845.3 65 872.7 69 886.3 71L900 73L900 0L886.3 0C872.7 0 845.3 0 818 0C790.7 0 763.3 0 736.2 0C709 0 682 0 654.8 0C627.7 0 600.3 0 573 0C545.7 0 518.3 0 491 0C463.7 0 436.3 0 409 0C381.7 0 354.3 0 327 0C299.7 0 272.3 0 245.2 0C218 0 191 0 163.8 0C136.7 0 109.3 0 82 0C54.7 0 27.3 0 13.7 0L0 0Z" fill="#dcdcdc"></path><path d="M0 307L13.7 294C27.3 281 54.7 255 82 254C109.3 253 136.7 277 163.8 265C191 253 218 205 245.2 190C272.3 175 299.7 193 327 199C354.3 205 381.7 199 409 207C436.3 215 463.7 237 491 240C518.3 243 545.7 227 573 228C600.3 229 627.7 247 654.8 247C682 247 709 229 736.2 234C763.3 239 790.7 267 818 282C845.3 297 872.7 299 886.3 300L900 301L900 71L886.3 69C872.7 67 845.3 63 818 63C790.7 63 763.3 67 736.2 70C709 73 682 75 654.8 75C627.7 75 600.3 73 573 79C545.7 85 518.3 99 491 95C463.7 91 436.3 69 409 57C381.7 45 354.3 43 327 46C299.7 49 272.3 57 245.2 57C218 57 191 49 163.8 49C136.7 49 109.3 57 82 68C54.7 79 27.3 93 13.7 100L0 107Z" fill="#d4d4d4"></path><path d="M0 355L13.7 361C27.3 367 54.7 379 82 399C109.3 419 136.7 447 163.8 429C191 411 218 347 245.2 318C272.3 289 299.7 295 327 290C354.3 285 381.7 269 409 284C436.3 299 463.7 345 491 360C518.3 375 545.7 359 573 348C600.3 337 627.7 331 654.8 329C682 327 709 329 736.2 346C763.3 363 790.7 395 818 408C845.3 421 872.7 415 886.3 412L900 409L900 299L886.3 298C872.7 297 845.3 295 818 280C790.7 265 763.3 237 736.2 232C709 227 682 245 654.8 245C627.7 245 600.3 227 573 226C545.7 225 518.3 241 491 238C463.7 235 436.3 213 409 205C381.7 197 354.3 203 327 197C299.7 191 272.3 173 245.2 188C218 203 191 251 163.8 263C136.7 275 109.3 251 82 252C54.7 253 27.3 279 13.7 292L0 305Z" fill="#cccccc"></path><path d="M0 511L13.7 519C27.3 527 54.7 543 82 552C109.3 561 136.7 563 163.8 554C191 545 218 525 245.2 514C272.3 503 299.7 501 327 503C354.3 505 381.7 511 409 513C436.3 515 463.7 513 491 518C518.3 523 545.7 535 573 536C600.3 537 627.7 527 654.8 526C682 525 709 533 736.2 541C763.3 549 790.7 557 818 552C845.3 547 872.7 529 886.3 520L900 511L900 407L886.3 410C872.7 413 845.3 419 818 406C790.7 393 763.3 361 736.2 344C709 327 682 325 654.8 327C627.7 329 600.3 335 573 346C545.7 357 518.3 373 491 358C463.7 343 436.3 297 409 282C381.7 267 354.3 283 327 288C299.7 293 272.3 287 245.2 316C218 345 191 409 163.8 427C136.7 445 109.3 417 82 397C54.7 377 27.3 365 13.7 359L0 353Z" fill="#bababa"></path><path d="M0 601L13.7 601C27.3 601 54.7 601 82 601C109.3 601 136.7 601 163.8 601C191 601 218 601 245.2 601C272.3 601 299.7 601 327 601C354.3 601 381.7 601 409 601C436.3 601 463.7 601 491 601C518.3 601 545.7 601 573 601C600.3 601 627.7 601 654.8 601C682 601 709 601 736.2 601C763.3 601 790.7 601 818 601C845.3 601 872.7 601 886.3 601L900 601L900 509L886.3 518C872.7 527 845.3 545 818 550C790.7 555 763.3 547 736.2 539C709 531 682 523 654.8 524C627.7 525 600.3 535 573 534C545.7 533 518.3 521 491 516C463.7 511 436.3 513 409 511C381.7 509 354.3 503 327 501C299.7 499 272.3 501 245.2 512C218 523 191 543 163.8 552C136.7 561 109.3 559 82 550C54.7 541 27.3 525 13.7 517L0 509Z" fill="#a9a9a9"></path></svg>